<?xml version="1.0" encoding="utf-8"?>
<!-- Generator: Adobe Illustrator 27.2.0, SVG Export Plug-In . SVG Version: 6.00 Build 0)  -->
<svg version="1.1" id="Ebene_1" xmlns="http://www.w3.org/2000/svg" xmlns:xlink="http://www.w3.org/1999/xlink" x="0px" y="0px"
	 viewBox="0 0 145.9 166.5" style="enable-background:new 0 0 145.9 166.5;" xml:space="preserve">
<style type="text/css">
	.st0{clip-path:url(#SVGID_00000052102107559172091430000003593744955399610792_);}
	.st1{fill:#010202;}
</style>
<g>
	<defs>
		<rect id="SVGID_1_" x="1.5" y="2.3" width="141.5" height="162.1"/>
	</defs>
	<clipPath id="SVGID_00000027571561019036280290000001151383465592837539_">
		<use xlink:href="#SVGID_1_"  style="overflow:visible;"/>
	</clipPath>
	<g id="Gruppe_1" style="clip-path:url(#SVGID_00000027571561019036280290000001151383465592837539_);">
		<path id="Pfad_1" class="st1" d="M78.8,56.1l-22.2,71.6l-25.9-25.9l-12,23.6c-0.2-0.2-0.4-0.3-0.5-0.5c-3.6-3.6-7.2-7.1-10.7-10.7
			c-1.2-1.2-1.3-3.1-0.2-4.4c1.1-1.3,3.1-1.4,4.3-0.3c0,0,0.1,0,0.1,0.1c1.6,1.4,3,3,4.5,4.4c0.2,0.2,0.4,0.5,0.7,0.9l12-23.7
			l24.6,24.6l25.2-81.1l0.2,0l23.1,75.8l0.2,0c0.2-0.5,0.3-1,0.5-1.4c1.9-6.4,3.8-12.9,5.7-19.3c2-6.7,3.9-13.3,5.9-20
			c1.8-6.1,3.6-12.3,5.4-18.4c2.1-7.1,4.2-14.1,6.3-21.2c2.1-7.1,4.2-14.1,6.3-21.2c0.4-1.5,0.9-2.9,1.3-4.4
			c0.5-1.7,2.2-2.7,3.9-2.2s2.7,2.2,2.2,3.9c0,0.1,0,0.1-0.1,0.2c-2.2,7.4-4.4,14.9-6.6,22.3c-1.4,4.9-2.9,9.7-4.3,14.6
			c-1.5,5.1-3,10.2-4.5,15.4c-1.4,4.9-2.9,9.7-4.3,14.6c-1.6,5.5-3.3,11.1-4.9,16.6c-1.6,5.5-3.3,11-4.9,16.5
			c-1.4,4.9-2.9,9.7-4.3,14.6c-1.1,3.6-2.1,7.2-3.2,10.8c-0.1,0.2-0.2,0.4-0.3,0.5C94.4,107,86.7,81.5,78.9,56.1L78.8,56.1"/>
		<path id="Pfad_2" class="st1" d="M10.6,153.8c-0.2,0.7-0.4,1.3-0.5,1.9c-0.7,2.7-1.5,5.3-2.2,8c-0.1,0.4-0.3,0.5-0.6,0.5
			c-0.2,0-0.4,0-0.7,0c-1.3,0-1.3,0-1.6-1.2c-0.8-3-1.5-6.1-2.3-9.2c-0.3-1.4-0.7-2.7-1-4.1c0-0.2-0.1-0.4-0.1-0.6
			c0.9,0,1.6,0,2.4,0c0.1,0,0.3,0.3,0.3,0.5c0.8,3.3,1.5,6.5,2.3,9.8c0,0.1,0,0.1,0.1,0.4c0.2-0.8,0.4-1.4,0.6-2.1
			c0.7-2.7,1.4-5.4,2.1-8.1c0.1-0.3,0.2-0.6,0.6-0.5c0.5,0,1,0,1.6,0c0.3,0,0.5,0.1,0.5,0.4c0,0,0,0,0,0c0.7,3.2,1.5,6.3,2.2,9.5
			c0,0.2,0.1,0.3,0.3,0.4c0.2-0.8,0.4-1.7,0.6-2.5c0.6-2.5,1.3-4.9,1.9-7.4c0-0.3,0.3-0.5,0.6-0.5c0,0,0,0,0,0c0.7,0,1.4,0,2.1,0
			c-0.3,1.1-0.6,2.1-0.8,3.1c-1.1,3.8-2.2,7.6-3.2,11.5c-0.1,0.4-0.3,0.6-0.7,0.6c-0.5,0-0.9,0-1.4,0c-0.4,0-0.6-0.2-0.7-0.6
			c-0.7-3.2-1.5-6.4-2.3-9.6C10.7,153.9,10.7,153.9,10.6,153.8"/>
		<path id="Pfad_3" class="st1" d="M22.1,156.6c0-2.3,0-4.6,0-6.8c0-0.5,0.1-0.8,0.7-0.7c0.4,0,0.9,0,1.3,0c0.4,0,0.5,0.1,0.5,0.5
			c0,1.7,0,3.3,0,5c0,0.5,0.2,0.6,0.6,0.6c1.7,0,3.3,0,5,0c0.5,0,0.6-0.2,0.6-0.6c0-1.6,0-3.2,0-4.9c0-0.5,0.1-0.7,0.6-0.6
			c0.4,0,0.9,0,1.3,0c0.5,0,0.6,0.1,0.6,0.6c0,3.6,0,7.2,0,10.7c0,1.1,0,2.1,0,3.2c0,0.4-0.1,0.5-0.5,0.5c-0.5,0-1,0-1.5,0
			c-0.4,0-0.5-0.2-0.5-0.6c0-1.8,0-3.6,0-5.4c0-0.7,0-0.7-0.8-0.7c-1.6,0-3.2,0-4.9,0c-0.4,0-0.6,0.1-0.5,0.5c0,1.8,0,3.7,0,5.5
			c0,0.5-0.2,0.7-0.6,0.6c-0.4,0-0.9,0-1.3,0c-0.5,0-0.6-0.2-0.6-0.6C22.1,161.2,22.1,158.9,22.1,156.6"/>
		<path id="Pfad_4" class="st1" d="M131.8,164.1c-0.9,0-1.6,0-2.4,0c-0.2,0-0.4-0.3-0.4-0.5c-0.4-1.1-0.8-2.2-1.1-3.3
			c-0.1-0.5-0.5-0.8-1-0.7c0,0,0,0,0,0c-1.1,0.1-2.2,0-3.3,0c-0.3,0-0.6,0.2-0.7,0.5c-0.4,1.2-0.8,2.3-1.1,3.5
			c-0.1,0.4-0.3,0.6-0.7,0.6c-0.5,0-1,0-1.5,0c-0.5,0-0.6-0.2-0.4-0.6c0.8-2.4,1.6-4.8,2.4-7.1c0.8-2.3,1.5-4.6,2.3-6.8
			c0.1-0.3,0.3-0.5,0.7-0.5c0.6,0,1.2,0,1.7,0c0.4,0,0.6,0.2,0.7,0.5c1,2.9,2,5.9,3,8.8c0.6,1.7,1.2,3.4,1.7,5.1
			C131.7,163.7,131.7,163.9,131.8,164.1 M125.4,152.7l-0.1,0l-1.6,4.8h3.3L125.4,152.7"/>
		<path id="Pfad_5" class="st1" d="M63.6,157.3H58c0,0.3,0,0.5,0,0.6c0,1.1,0,2.1,0,3.2c0,0.7,0,0.7,0.7,0.7c1.6,0,3.2,0,4.9,0
			c0.5,0,0.6,0.1,0.6,0.6c0,1.6,0,1.6-1.6,1.6c-2.2,0-4.4,0-6.5,0c-0.4,0-0.6-0.1-0.6-0.5c0-4.7,0-9.4,0-14.2c0-0.1,0-0.2,0-0.4h8.4
			c0,0.6,0,1.3,0,1.9c0,0.4-0.3,0.3-0.5,0.3c-1.5,0-3,0-4.5,0c-0.9,0-0.9,0-0.9,0.8c0,0.8,0,1.6,0,2.5c0,0.4,0.1,0.6,0.6,0.6
			c1.5,0,3,0,4.5,0c0.4,0,0.6,0.1,0.5,0.5C63.6,156.2,63.6,156.7,63.6,157.3"/>
		<path id="Pfad_6" class="st1" d="M89.2,149.1c-0.3,0.8-0.5,1.4-0.7,2.1c-1.5,4.1-2.9,8.2-4.4,12.3c-0.2,0.5-0.4,0.8-1,0.7
			c-0.3,0-0.7,0-1,0c-0.6,0.1-0.9-0.2-1.1-0.8c-1.4-4.5-2.9-9.1-4.4-13.6c-0.1-0.2-0.1-0.4-0.2-0.7c0.9,0,1.7,0,2.5,0
			c0.1,0,0.3,0.2,0.3,0.4c1.1,3.4,2.1,6.8,3.2,10.2c0,0.2,0.2,0.4,0.3,0.5c0.3-0.8,0.5-1.6,0.8-2.5c0.9-2.8,1.9-5.5,2.8-8.2
			c0.1-0.2,0.2-0.4,0.4-0.4C87.5,149.1,88.3,149.1,89.2,149.1"/>
		<path id="Pfad_7" class="st1" d="M134.2,161.2c0.9,0.3,1.8,0.6,2.7,0.9c0.7,0.1,1.4,0.1,2-0.1c1.1-0.3,1.7-1.4,1.4-2.4
			c-0.1-0.4-0.3-0.7-0.6-1c-0.7-0.4-1.4-0.8-2.1-1.1c-0.6-0.3-1.3-0.6-1.9-1c-1.8-1.2-2.3-3.6-1.2-5.4c0.4-0.5,0.8-1,1.4-1.3
			c1.9-1,4.2-1.1,6.1-0.1c0.4,0.2,0.5,0.4,0.3,0.7c-0.2,0.4-0.3,0.8-0.4,1.2c-0.1,0.4-0.3,0.4-0.6,0.2c-1-0.6-2.3-0.7-3.4-0.4
			c-0.6,0.1-1.1,0.6-1.3,1.3c-0.2,0.6,0,1.3,0.5,1.7c0.6,0.4,1.3,0.7,2,1.1c0.9,0.4,1.8,1,2.7,1.6c1.7,1.7,1.6,4.4,0,6
			c-0.5,0.5-1.1,0.8-1.7,1c-1.9,0.6-4,0.5-5.8-0.4c-0.4-0.2-0.6-0.4-0.4-0.9C133.9,162.2,134.1,161.7,134.2,161.2"/>
		<path id="Pfad_8" class="st1" d="M46.2,157.7c0-1.9,0-3.8,0-5.8c0-0.5-0.1-0.7-0.6-0.7c-1.1,0-2.1,0-3.2,0c-0.4,0-0.6-0.1-0.6-0.6
			c0-1.7,0-1.7,1.6-1.7c3,0,6,0,9,0c0.6,0,0.7,0.2,0.7,0.7c0,1.5,0,1.5-1.5,1.5h-2.1c-0.8,0-0.8,0-0.8,0.8c0,3.8,0,7.5,0,11.3
			c0,0.8,0,0.8-0.8,0.8c-0.4,0-0.8,0-1.2,0c-0.4,0-0.6-0.1-0.6-0.6C46.2,161.6,46.2,159.7,46.2,157.7"/>
		<path id="Pfad_9" class="st1" d="M100,155.5c0,1.9,0,3.8,0,5.8c0,0.5,0.1,0.7,0.6,0.6c1.7,0,3.3,0,5,0c0.4,0,0.6,0.1,0.5,0.5
			c0,0.5,0.1,1.3-0.2,1.6c-0.2,0.3-1,0.1-1.6,0.1c-2.1,0-4.3,0-6.4,0c-0.4,0-0.6-0.1-0.6-0.6c0-4.7,0-9.3,0-14
			c0-0.4,0.1-0.6,0.6-0.6c0.4,0,0.9,0,1.3,0c0.5,0,0.6,0.2,0.6,0.7C99.9,151.7,99.9,153.6,100,155.5"/>
		<path id="Pfad_10" class="st1" d="M117.5,164.1c-0.2,0-0.4,0-0.6,0c-2.5,0-5,0-7.5,0c-0.5,0-0.6-0.1-0.6-0.6c0-4.6,0-9.2,0-13.9
			c0-0.5,0.2-0.7,0.7-0.7c0.4,0,0.8,0,1.2,0c0.5,0,0.6,0.2,0.6,0.6c0,3.7,0,7.4,0,11.1c0,1.3-0.1,1.1,1.1,1.1c1.5,0,3,0,4.5,0
			c0.5,0,0.6,0.1,0.6,0.6C117.5,163,117.5,163.6,117.5,164.1"/>
		<path id="Pfad_11" class="st1" d="M91.1,156.7c0-2.3,0-4.6,0-6.9c0-0.6,0.2-0.8,0.7-0.7c0.4,0,0.8,0,1.2,0c0.5,0,0.6,0.2,0.6,0.6
			c0,2.7,0,5.4,0,8.1c0,1.9,0,3.8,0,5.7c0,0.6-0.2,0.7-0.7,0.7c-0.4,0-0.8,0-1.2,0c-0.5,0-0.6-0.2-0.6-0.6
			C91.2,161.2,91.1,158.9,91.1,156.7"/>
		<path id="Pfad_12" class="st1" d="M39.7,156.7c0,2.3,0,4.5,0,6.8c0,0.5-0.1,0.7-0.7,0.7c-0.4,0-0.9,0-1.3,0
			c-0.4,0-0.6-0.1-0.6-0.6c0-1.8,0-3.6,0-5.4c0-2.8,0-5.6,0-8.4c0-0.5,0.2-0.7,0.7-0.7c0.4,0,0.8,0,1.2,0c0.5,0,0.6,0.1,0.6,0.6
			C39.7,152,39.7,154.3,39.7,156.7"/>
	</g>
</g>
</svg>
